<?xml version="1.0" encoding="UTF-8" standalone="no"?>
<svg
   xmlns:dc="http://purl.org/dc/elements/1.1/"
   xmlns:cc="http://creativecommons.org/ns#"
   xmlns:rdf="http://www.w3.org/1999/02/22-rdf-syntax-ns#"
   xmlns:svg="http://www.w3.org/2000/svg"
   xmlns="http://www.w3.org/2000/svg"
   xmlns:sodipodi="http://sodipodi.sourceforge.net/DTD/sodipodi-0.dtd"
   xmlns:inkscape="http://www.inkscape.org/namespaces/inkscape"
   width="558.95905"
   height="174.64259"
   version="1.2"
   id="svg2"
   inkscape:version="0.48.5 r10040"
   sodipodi:docname="HTML_to_SVG (1).svg">
  <metadata
     id="metadata64">
    <rdf:RDF>
      <cc:Work
         rdf:about="">
        <dc:format>image/svg+xml</dc:format>
        <dc:type
           rdf:resource="http://purl.org/dc/dcmitype/StillImage" />
      </cc:Work>
    </rdf:RDF>
  </metadata>
  <sodipodi:namedview
     pagecolor="#ffffff"
     bordercolor="#666666"
     borderopacity="1"
     objecttolerance="10"
     gridtolerance="10"
     guidetolerance="10"
     inkscape:pageopacity="0"
     inkscape:pageshadow="2"
     inkscape:window-width="1280"
     inkscape:window-height="669"
     id="namedview62"
     showgrid="false"
     fit-margin-top="0"
     fit-margin-left="0"
     fit-margin-right="0"
     fit-margin-bottom="0"
     inkscape:zoom="1.316988"
     inkscape:cx="346.52022"
     inkscape:cy="110.70246"
     inkscape:window-x="0"
     inkscape:window-y="1"
     inkscape:window-maximized="1"
     inkscape:current-layer="svg2" />
  <desc
     id="desc4">Created by EvoPdf</desc>
  <defs
     id="defs6" />
  <g
     id="g8"
     style="fill:none;stroke:#000000;stroke-width:1;stroke-linecap:square;stroke-linejoin:bevel"
     transform="matrix(3.0360448,0,0,3.0360448,-2431.7062,-21.994505)">
    <g
       stroke-miterlimit="2"
       id="g10"
       style="fill:#000000;fill-opacity:1;stroke:#000000;stroke-width:1;stroke-linecap:square;stroke-linejoin:miter;stroke-miterlimit:2;stroke-opacity:1" />
    <g
       stroke-miterlimit="2"
       id="g12"
       style="fill:#000000;fill-opacity:1;stroke:#000000;stroke-width:1;stroke-linecap:square;stroke-linejoin:miter;stroke-miterlimit:2;stroke-opacity:1" />
    <g
       stroke-miterlimit="2"
       id="g14"
       style="fill:#000000;fill-opacity:1;stroke:#000000;stroke-width:1;stroke-linecap:square;stroke-linejoin:miter;stroke-miterlimit:2;stroke-opacity:1" />
    <g
       stroke-miterlimit="2"
       id="g20"
       style="fill:#000000;fill-opacity:1;stroke:#000000;stroke-width:1;stroke-linecap:square;stroke-linejoin:miter;stroke-miterlimit:2;stroke-opacity:1" />
    <g
       stroke-miterlimit="2"
       id="g22"
       style="fill:#000000;fill-opacity:1;stroke:#000000;stroke-width:1;stroke-linecap:square;stroke-linejoin:miter;stroke-miterlimit:2;stroke-opacity:1" />
    <g
       stroke-miterlimit="2"
       transform="matrix(0.395201,0,0,0.395201,803.349,8)"
       id="g24"
       style="fill:#000000;fill-opacity:1;stroke:#000000;stroke-width:1;stroke-linecap:square;stroke-linejoin:miter;stroke-miterlimit:2;stroke-opacity:1" />
    <g
       transform="matrix(0.395201,0,0,0.395201,803.349,8)"
       id="g26"
       style="fill:#ffe600;fill-opacity:1;stroke:none">
      <path
         vector-effect="none"
         d="m 98.5,134.1 c 13.5,-9.6 22,-18.9 31.6,-36.5 5.6,-9.7 11.4,-45.3 5.1,-69.5 6.9,12.5 8,38.1 2,57.9 -5.9,20.7 -18.8,35.6 -38.7,48.1 m -15.2,2.2 c -11.9,-0.8 -20.4,-5.8 -29.7,-12 25.1,8.4 46.2,-2.8 59.7,-40 5.8,-7.8 7.6,-13.5 9.3,-20.3 -2.7,22.6 -15.4,64.1 -39.3,72.3 M 37.7,116.7 c 3.6,2.7 8.2,4.9 12.2,6.3 14.3,9.9 28.6,13.7 30,14 -16.5,1.6 -29.7,-8.9 -42.2,-20.3 M 20.5,49.8 C 1.6,80.6 26,115.3 51.7,131.2 32.1,125.8 17.7,108 11.1,93.1 4.7,77.3 6,64.5 20.5,49.8 m 89.3,39.1 C 99.4,114.4 84.1,125.7 67.5,124 47.4,122.5 38.6,116.7 28,100.4 c 0,0 0,0.1 0.1,0.1 -3.4,-5.5 -5,-13.3 -5.3,-19.4 12.8,31 61,40.7 87,7.8 M 53.1,34.6 C 66.3,23 81.7,14.6 96,15.1 c 25.3,1.2 25.8,40.9 15.7,68.8 -27,36.8 -72.4,26.3 -82.9,-1.3 -3,-13.1 3.5,-29.5 24.3,-48 m 62.2,44 c 5,-16.4 6.4,-34.1 2.3,-48.9 9.4,15 7.3,33.7 -2.3,48.9 m 9.9,-49.8 c 0.6,4 0.9,9.2 -0.5,18.3 -1.4,-16.9 -12.7,-32.8 -23.5,-35.5 11.2,0.1 19.3,4 24,17.2 m -1.3,40 c 1.2,-8.4 1.2,-16.4 1.2,-16.4 0.6,-3.5 1.8,-10 1.8,-16.7 10.2,30 -1,70.1 -24.7,90.8 6.6,-9.3 17.8,-31.7 21.7,-57.7 m -14,54.1 c 8.6,-12.2 19.4,-32.8 22,-54.9 0.4,-4 2.1,-41.9 -13.8,-58.4 15.9,5.3 20.9,33.3 18.3,56.4 -2.6,24.3 -12.7,43.7 -26.5,56.9 M 132.4,12.1 C 129.1,6.6 116.8,-2 95.8,0.4 69.5,0.4 44.2,14.6 27,28.1 9.6,42.1 0.1,55.3 0,62.8 c -0.2,9.4 5,29.1 15.3,44.5 10.1,14.6 19.1,19.7 32.8,26.7 13.5,7.2 31.3,11.3 44.8,3.6 17,-3.6 32.5,-23.1 42.2,-43.5 9.4,-19.2 12.3,-58.8 -2.7,-82"
         id="path28"
         inkscape:connector-curvature="0"
         style="fill-rule:nonzero" />
    </g>
    <g
       stroke-miterlimit="2"
       transform="matrix(0.395201,0,0,0.395201,803.349,8)"
       id="g30"
       style="fill:#000000;fill-opacity:1;stroke:#000000;stroke-width:1;stroke-linecap:square;stroke-linejoin:miter;stroke-miterlimit:2;stroke-opacity:1" />
    <g
       transform="matrix(0.395201,0,0,0.395201,803.349,8)"
       id="g32"
       style="fill:#000000;fill-opacity:1;stroke:none">
      <path
         vector-effect="none"
         d="m 200.9,84.1 c 7.8,0 13.2,-6.1 13.2,-13.7 0,-7.6 -5.3,-13.8 -13.2,-13.8 -7.8,0 -13.2,6.2 -13.2,13.8 0.1,7.6 5.4,13.7 13.2,13.7 m 0,-40 c 15.1,0 26.5,11.8 26.5,26.3 0,14.6 -11.4,26.2 -26.5,26.2 -15.1,0 -26.5,-11.6 -26.5,-26.2 0,-14.6 11.4,-26.3 26.5,-26.3 m 67.3,0 0,13 c -8.3,0 -12.6,1.2 -16,3 l 0,35.5 -13.4,0 0,-42.9 c 7.7,-6 17.4,-8.6 27.8,-8.6 l 1.6,0 m 85.7,8.8 c 0,-4.2 5.1,-8.8 14.1,-8.8 6.9,0 13.2,3.1 17.3,8.1 3.3,4 5.1,9.1 5.1,17.7 l 0,25.7 -13.4,0 0,-26.8 c 0,-5 -1.1,-7.6 -3,-9.5 -1.7,-1.8 -4.4,-2.8 -7.5,-2.8 -5.7,0 -10.3,3.6 -12.1,6.2 l 0,32.8 -13.4,0 0,-50.4 12.9,0 0,7.8 0,0 m 73.3,31.2 c 7.8,0 13.2,-6.1 13.2,-13.7 0,-7.6 -5.3,-13.8 -13.2,-13.8 -7.8,0 -13.2,6.2 -13.2,13.8 0,7.6 5.4,13.7 13.2,13.7 m 0,-40 c 15.1,0 26.5,11.8 26.5,26.3 0,14.6 -11.4,26.2 -26.5,26.2 -15.1,0 -26.5,-11.6 -26.5,-26.2 0,-14.6 11.4,-26.3 26.5,-26.3 M 312.9,59.8 c -3,-2.4 -6.1,-3.6 -11.2,-3.6 -9,0 -14,6.9 -14,14.1 0,7.8 5.7,14 13.2,14 5,0 9.5,-2.5 12,-6.2 l 0,-18.3 m 13.4,-5.7 0,41.5 -12.9,0 0,-7.7 c 0,3.8 -7.9,8.7 -15,8.7 -14.5,0 -24.1,-10.8 -24.1,-26.3 0,-14.7 11.1,-26.4 26.4,-26.4 10.2,-0.1 18.3,3 25.6,10.2"
         id="path34"
         inkscape:connector-curvature="0"
         style="fill-rule:nonzero" />
    </g>
    <g
       stroke-miterlimit="2"
       transform="matrix(0.395201,0,0,0.395201,803.349,8)"
       id="g36"
       style="fill:#000000;fill-opacity:1;stroke:#000000;stroke-width:1;stroke-linecap:square;stroke-linejoin:miter;stroke-miterlimit:2;stroke-opacity:1" />
    <g
       stroke-miterlimit="2"
       transform="matrix(0.395201,0,0,0.395201,803.349,8)"
       id="g38"
       style="fill:#000000;fill-opacity:1;stroke:#000000;stroke-width:1;stroke-linecap:square;stroke-linejoin:miter;stroke-miterlimit:2;stroke-opacity:1" />
    <g
       stroke-miterlimit="2"
       id="g40"
       style="fill:#000000;fill-opacity:1;stroke:#000000;stroke-width:1;stroke-linecap:square;stroke-linejoin:miter;stroke-miterlimit:2;stroke-opacity:1" />
    <g
       stroke-miterlimit="2"
       id="g42"
       style="fill:#000000;fill-opacity:1;stroke:#000000;stroke-width:1;stroke-linecap:square;stroke-linejoin:miter;stroke-miterlimit:2;stroke-opacity:1" />
    <g
       stroke-miterlimit="2"
       id="g44"
       style="fill:#000000;fill-opacity:1;stroke:#000000;stroke-width:1;stroke-linecap:square;stroke-linejoin:miter;stroke-miterlimit:2;stroke-opacity:1" />
    <g
       stroke-miterlimit="2"
       id="g46"
       style="fill:#000000;fill-opacity:1;stroke:#000000;stroke-width:1;stroke-linecap:square;stroke-linejoin:miter;stroke-miterlimit:2;stroke-opacity:1" />
    <g
       stroke-miterlimit="2"
       transform="matrix(0.395201,0,0,0.395201,803.349,8)"
       id="g48"
       style="fill:#000000;fill-opacity:1;stroke:#000000;stroke-width:1;stroke-linecap:square;stroke-linejoin:miter;stroke-miterlimit:2;stroke-opacity:1" />
    <g
       stroke-miterlimit="2"
       id="g50"
       style="fill:#000000;fill-opacity:1;stroke:#000000;stroke-width:1;stroke-linecap:square;stroke-linejoin:miter;stroke-miterlimit:2;stroke-opacity:1" />
    <g
       stroke-miterlimit="2"
       id="g52"
       style="fill:#000000;fill-opacity:1;stroke:#000000;stroke-width:1;stroke-linecap:square;stroke-linejoin:miter;stroke-miterlimit:2;stroke-opacity:1" />
    <g
       stroke-miterlimit="2"
       id="g54"
       style="fill:#000000;fill-opacity:1;stroke:#000000;stroke-width:1;stroke-linecap:square;stroke-linejoin:miter;stroke-miterlimit:2;stroke-opacity:1" />
    <g
       stroke-miterlimit="2"
       id="g56"
       style="fill:#000000;fill-opacity:1;stroke:#000000;stroke-width:1;stroke-linecap:square;stroke-linejoin:miter;stroke-miterlimit:2;stroke-opacity:1" />
    <g
       stroke-miterlimit="2"
       id="g58"
       style="fill:#000000;fill-opacity:1;stroke:#000000;stroke-width:1;stroke-linecap:square;stroke-linejoin:miter;stroke-miterlimit:2;stroke-opacity:1" />
    <g
       stroke-miterlimit="2"
       id="g60"
       style="fill:#000000;fill-opacity:1;stroke:#000000;stroke-width:1;stroke-linecap:square;stroke-linejoin:miter;stroke-miterlimit:2;stroke-opacity:1" />
  </g>
</svg>
